Coordinates
version=1
nRows=5
nColumns=46
inDegrees=yes

Units are S.I. units (second, meters, Newtons, ...)
Angles are in degrees.

endheader
time	pelvis_tilt	pelvis_list	pelvis_rotation	pelvis_tx	pelvis_ty	pelvis_tz	bb_angle	bb_tx	bb_ty	bb_tz	hip_flexion_r	hip_adduction_r	hip_rotation_r	knee_angle_r	knee_angle_r_beta	ankle_angle_r	subtalar_angle_r	mtp_angle_r	crank_angle_r	hip_flexion_l	hip_adduction_l	hip_rotation_l	knee_angle_l	knee_angle_l_beta	ankle_angle_l	subtalar_angle_l	mtp_angle_l	crank_angle_l	lumbar_extension	lumbar_bending	lumbar_rotation	arm_flex_r	arm_add_r	arm_rot_r	elbow_flex_r	pro_sup_r	wrist_flex_r	wrist_dev_r	arm_flex_l	arm_add_l	arm_rot_l	elbow_flex_l	pro_sup_l	wrist_flex_l	wrist_dev_l
      0.00500000	    -21.45694180	      6.54304219	      2.60763109	      0.14069399	      1.11057228	     -0.26669807	      0.00000000	      0.50000000	      0.00000000	      0.25000000	     50.31223855	    -10.12378790	      1.53246360	     55.69998121	      0.97214807	      7.36673044	     -9.90240685	      0.00000000	      0.00000000	     92.09712958	     -6.63950979	     -4.88777886	     98.27785939	      1.71527223	     23.05346691	      2.73324857	      0.00000000	      0.00000000	    -36.72324628	     -2.62439704	     -8.98527178	     77.49437788	     -4.05440363	     40.64071707	     23.21594462	     41.22018312	      0.00000000	      0.00000000	     77.38229716	    -15.83540581	     52.23221809	     24.51538427	     44.42366984	      0.00000000	      0.00000000
      0.01000000	    -21.43052573	      6.55476608	      2.62418633	      0.14069154	      1.11061482	     -0.26673050	      0.00000000	      0.50000000	      0.00000000	      0.25000000	     50.27964200	    -10.15155083	      1.52191060	     55.69569438	      0.97207325	      7.40333747	     -9.85812073	      0.00000000	      0.00000000	     92.06549039	     -6.62184210	     -4.90180017	     98.28233587	      1.71535036	     23.06777717	      2.74197648	      0.00000000	      0.00000000	    -36.76523769	     -2.63971779	     -8.97554591	     77.54671975	     -4.59448690	     42.60775564	     23.55438927	     41.49654067	      0.00000000	      0.00000000	     77.72430759	    -16.15128538	     54.27903574	     24.41316368	     44.87020888	      0.00000000	      0.00000000
      0.01500000	    -21.46143689	      6.50264369	      2.60442482	      0.14074580	      1.11058725	     -0.26665016	      0.00000000	      0.50000000	      0.00000000	      0.25000000	     50.28191176	    -10.06735842	      1.52215620	     55.63801978	      0.97106663	      7.27898126	    -10.06831619	      0.00000000	      0.00000000	     92.10489213	     -6.67225149	     -4.84564400	     98.29687099	      1.71560404	     23.11595661	      2.86291440	      0.00000000	      0.00000000	    -36.71430863	     -2.57380512	     -9.01183065	     77.45046114	     -3.88852944	     40.16357229	     23.25499045	     41.23220282	      0.00000000	      0.00000000	     77.18155827	    -15.66497440	     50.89713187	     24.51391812	     44.36636420	      0.00000000	      0.00000000
      0.02000000	    -21.41403309	      6.54675831	      2.62118919	      0.14078128	      1.11068558	     -0.26660788	      0.00000000	      0.50000000	      0.00000000	      0.25000000	     50.21023612	    -10.11107181	      1.53480207	     55.61993638	      0.97075102	      7.38169872	     -9.92428043	      0.00000000	      0.00000000	     92.04288811	     -6.67204597	     -4.90855468	     98.29604515	      1.71558963	     23.07932992	      2.80782356	      0.00000000	      0.00000000	    -36.79081924	     -2.64221043	     -8.97698390	     77.54697638	     -4.57543627	     42.53977152	     23.45913061	     41.85380540	      0.00000000	      0.00000000	     77.76720227	    -16.00482930	     53.89399830	     24.16259986	     45.09330142	      0.00000000	      0.00000000
      0.02500000	    -21.37250096	      6.47597070	      2.58785980	      0.14085213	      1.11078837	     -0.26653566	      0.00000000	      0.50000000	      0.00000000	      0.25000000	     50.12302396	    -10.01229854	      1.50896546	     55.55325425	      0.96958720	      7.34658867	    -10.03679461	      0.00000000	      0.00000000	     92.00525025	     -6.72623509	     -4.82872105	     98.32410164	      1.71607931	     23.19068155	      3.00437024	      0.00000000	      0.00000000	    -36.82180667	     -2.55281871	     -8.93882034	     77.51188975	     -4.19889140	     41.07025227	     23.36172841	     41.69841209	      0.00000000	      0.00000000	     77.38766946	    -15.73645616	     51.95842204	     24.34710694	     44.75888194	      0.00000000	      0.00000000
